HIERARCHY
ROOT Hips
{
 OFFSET 0.000000 0.000000 0.000000
 CHANNELS 6 Xposition Yposition Zposition Yrotation Xrotation Zrotation
 JOINT Chest
 {
  OFFSET 0.000000 9.585900 0.002600
  CHANNELS 3 Yrotation Xrotation Zrotation
  JOINT Chest2
  {
   OFFSET 0.000000 9.601200 -0.005300
   CHANNELS 3 Yrotation Xrotation Zrotation
   JOINT Chest3
   {
    OFFSET 0.000000 9.561800 0.000000
    CHANNELS 3 Yrotation Xrotation Zrotation
    JOINT Chest4
    {
     OFFSET 0.000000 9.552100 0.000000
     CHANNELS 3 Yrotation Xrotation Zrotation
     JOINT Neck
     {
      OFFSET 0.000000 14.453000 0.000000
      CHANNELS 3 Yrotation Xrotation Zrotation
      JOINT Head
      {
       OFFSET 0.000000 8.936500 -0.011300
       CHANNELS 3 Yrotation Xrotation Zrotation
       End Site
       {
        OFFSET 0.000000 17.073600 -0.006000
       }
      }
     }
     JOINT RightCollar
     {
      OFFSET -2.921100 9.558500 0.000000
      CHANNELS 3 Yrotation Xrotation Zrotation
      JOINT RightShoulder
      {
       OFFSET -13.519700 0.000000 0.000000
       CHANNELS 3 Yrotation Xrotation Zrotation
       JOINT RightElbow
       {
        OFFSET 0.000000 -29.696600 0.000000
        CHANNELS 3 Yrotation Xrotation Zrotation
        JOINT RightWrist
        {
         OFFSET 0.000000 -24.004700 0.000000
         CHANNELS 3 Yrotation Xrotation Zrotation
         End Site
         {
          OFFSET 0.000000 -17.728500 0.000000
         }
        }
       }
      }
     }
     JOINT LeftCollar
     {
      OFFSET 2.921100 9.558500 0.000000
      CHANNELS 3 Yrotation Xrotation Zrotation
      JOINT LeftShoulder
      {
       OFFSET 13.519700 0.000000 0.000000
       CHANNELS 3 Yrotation Xrotation Zrotation
       JOINT LeftElbow
       {
        OFFSET 0.000000 -29.696600 0.000000
        CHANNELS 3 Yrotation Xrotation Zrotation
        JOINT LeftWrist
        {
         OFFSET 0.000000 -24.004700 0.000000
         CHANNELS 3 Yrotation Xrotation Zrotation
         End Site
         {
          OFFSET 0.000000 -17.728500 0.000000
         }
        }
       }
      }
     }
    }
   }
  }
 }
 JOINT RightHip
 {
  OFFSET -7.771700 -0.012900 -0.001300
  CHANNELS 3 Yrotation Xrotation Zrotation
  JOINT RightKnee
  {
   OFFSET 0.000000 -40.869800 0.001200
   CHANNELS 3 Yrotation Xrotation Zrotation
   JOINT RightAnkle
   {
    OFFSET 0.000000 -39.717900 0.002100
    CHANNELS 3 Yrotation Xrotation Zrotation
    JOINT RightToe
    {
     OFFSET 0.000000 -4.965400 11.033500
     CHANNELS 3 Yrotation Xrotation Zrotation
     End Site
     {
      OFFSET 0.000000 -1.423100 5.872300
     }
    }
   }
  }
 }
 JOINT LeftHip
 {
  OFFSET 7.771700 -0.012900 -0.001300
  CHANNELS 3 Yrotation Xrotation Zrotation
  JOINT LeftKnee
  {
   OFFSET 0.000000 -40.869800 0.001200
   CHANNELS 3 Yrotation Xrotation Zrotation
   JOINT LeftAnkle
   {
    OFFSET 0.000000 -39.717900 0.002100
    CHANNELS 3 Yrotation Xrotation Zrotation
    JOINT LeftToe
    {
     OFFSET 0.000000 -4.965400 11.033500
     CHANNELS 3 Yrotation Xrotation Zrotation
     End Site
     {
      OFFSET 0.000000 -1.423100 5.872300
     }
    }
   }
  }
 }
}
MOTION
Frames: 15
Frame Time: 0.008333
0.000000 85.388000 0.000000 0.000000 -5.767877 0.000000 0.000000 11.653817 0.000000 0.000000 -5.885947 0.000000 0.000000 -0.000000 0.000000 0.000000 -0.000000 0.000000 0.000000 12.528835 0.000000 0.000000 0.711642 0.000000 0.000000 -0.000000 0.000000 0.000000 0.000000 -90.000000 0.000000 -2.309062 0.000000 0.000000 2.309062 0.000000 0.000000 -0.000000 0.000000 0.000000 -0.000000 90.000000 0.000000 -2.309062 0.000000 0.000000 2.309062 0.000000 0.000000 8.520406 0.000000 0.000000 1.905762 0.000000 -0.000000 -4.658285 0.000000 0.000000 -0.000000 0.000000 0.000000 8.520406 0.000000 0.000000 1.905762 0.000000 -0.000000 -4.658285 0.000000 0.000000 -0.000000 0.000000
-18.750007 51.663162 29.313276 177.904977 -24.125342 0.411171 -0.864139 12.473594 0.430218 -0.010513 0.909358 0.069258 -0.114406 1.599002 0.124442 -0.742983 11.317431 0.821015 3.237952 19.340461 -4.781915 4.648920 -5.052791 -5.949588 14.691265 6.179560 6.455592 73.739427 -6.341273 -71.466911 127.868973 -30.688074 -164.102515 7.631515 1.089384 -21.557285 -2.066867 13.496632 -13.089063 -27.123343 2.746108 29.402862 -166.444412 -70.647292 -158.903430 13.356002 5.668683 -19.594348 -11.131192 -58.561214 4.132154 -66.039430 82.536810 -74.848422 -3.523702 -5.668469 7.105916 0.316086 -0.545623 0.131636 9.079106 -56.564112 -7.103299 51.022179 84.995907 56.897094 -2.460351 -13.469649 0.054157 0.088119 0.437435 0.039008
-18.756616 51.663664 29.313771 177.922637 -24.129735 0.408465 -0.783431 12.428834 0.439450 -0.052120 0.927679 0.072203 -0.137257 1.612012 0.127108 -0.683566 11.288727 0.822820 3.250976 19.337178 -4.803459 4.623035 -5.036044 -5.944610 14.689849 6.138267 6.439803 73.705685 -6.277308 -71.446849 127.912483 -30.684176 -164.114200 7.660552 1.063215 -21.641821 -2.074732 13.425347 -13.036743 -26.920694 2.683267 29.681535 -167.049924 -69.228694 -158.488361 13.411556 5.293458 -19.493188 -11.128898 -58.556966 4.114436 -66.032530 82.536100 -74.838545 -3.534702 -5.660381 7.101552 0.324557 -0.559332 0.140788 9.196988 -56.557579 -7.229298 51.056982 84.989766 56.994461 -2.441238 -13.447836 0.067496 0.065896 0.417923 0.029753
-18.763002 51.664707 29.312921 177.934253 -24.141982 0.401066 -0.733010 12.405946 0.449274 -0.086073 0.947329 0.075746 -0.094626 1.584428 0.123012 -0.687289 11.296757 0.829118 3.261478 19.333287 -4.820806 4.618333 -5.027162 -5.955837 14.714629 6.089386 6.416934 73.676626 -6.221785 -71.427810 127.932431 -30.680440 -164.104304 7.711096 1.104261 -21.716508 -2.066834 13.340281 -12.990324 -26.736050 2.608392 29.965002 -167.738116 -67.824614 -158.012427 13.497356 4.910017 -19.367252 -11.128491 -58.543728 4.105291 -66.060074 82.530752 -74.858260 -3.543886 -5.653788 7.090449 0.339255 -0.568252 0.151092 9.247209 -56.544279 -7.287049 51.102546 84.983477 57.075479 -2.442444 -13.439558 0.068621 0.062344 0.410498 0.030746
-18.771765 51.665869 29.311456 177.945938 -24.155499 0.403052 -0.701906 12.391085 0.445241 -0.104384 0.960141 0.079866 -0.066778 1.565096 0.119788 -0.717650 11.319518 0.835196 3.306057 19.307873 -4.848701 4.614708 -5.016196 -5.966283 14.781413 6.021043 6.380309 73.645982 -6.171888 -71.404284 127.931012 -30.672849 -164.080515 7.748810 1.142901 -21.785400 -2.029020 13.228302 -12.954656 -26.561116 2.526626 30.250496 -168.494594 -66.433132 -157.505071 13.620118 4.506430 -19.224683 -11.120905 -58.532114 4.087659 -66.110182 82.514099 -74.916146 -3.530289 -5.638443 7.086077 0.340712 -0.584587 0.164826 9.312112 -56.526824 -7.359229 51.094312 84.984750 57.095910 -2.437684 -13.434201 0.078144 0.061133 0.405658 0.030020
-18.780144 51.666688 29.310363 177.958551 -24.163453 0.398589 -0.693430 12.384826 0.444959 -0.076717 0.943555 0.078011 -0.101247 1.586937 0.124579 -0.602006 11.242427 0.829258 3.252023 19.352551 -4.841157 4.615510 -5.003549 -5.976554 14.747278 6.016822 6.391049 73.613830 -6.122569 -71.372894 127.910132 -30.656386 -164.050454 7.758649 1.125018 -21.828003 -2.100044 13.184665 -12.892331 -26.388403 2.441315 30.535279 -169.330954 -65.044538 -156.957168 13.767972 4.082561 -19.083066 -11.125373 -58.524179 4.080576 -66.117347 82.511962 -74.924856 -3.538131 -5.624610 7.082742 0.347320 -0.597263 0.169481 9.334584 -56.518180 -7.389381 51.073181 84.987813 57.080335 -2.433724 -13.433118 0.088586 0.055219 0.405505 0.029256
-18.787618 51.667686 29.308467 177.967511 -24.173110 0.387740 -0.682690 12.380472 0.451150 -0.032229 0.903471 0.066261 -0.121512 1.605421 0.132087 -0.562110 11.213503 0.834315 3.239585 19.376735 -4.845036 4.621269 -4.988950 -5.988279 14.756832 5.998804 6.388163 73.549920 -6.110697 -71.318222 127.911722 -30.626224 -164.029885 7.751281 0.999703 -21.799359 -2.128595 13.113570 -12.838594 -26.214905 2.354180 30.813743 -170.238161 -63.654057 -156.369123 13.924585 3.646312 -18.958274 -11.117157 -58.504380 4.076967 -66.113919 82.489794 -74.917759 -3.540188 -5.629504 7.085492 0.355309 -0.584825 0.169580 9.348612 -56.510225 -7.400862 50.963947 85.008080 56.968299 -2.405505 -13.432593 0.110352 0.039602 0.403896 0.025921
-18.796126 51.668957 29.305459 177.986374 -24.186115 0.377439 -0.639024 12.338212 0.449461 -0.053210 0.920530 0.073884 -0.121213 1.606936 0.131328 -0.544810 11.197689 0.845913 3.244828 19.389000 -4.858460 4.630567 -4.973896 -6.004624 14.784979 5.973506 6.375258 73.525343 -6.047971 -71.282058 127.817053 -30.653682 -164.012656 7.725302 0.892981 -21.744764 -2.136407 13.025250 -12.792302 -26.035287 2.259216 31.080059 -171.173120 -62.267638 -155.789518 14.089868 3.202673 -18.860978 -11.122304 -58.485805 4.071031 -66.120487 82.481462 -74.935996 -3.525985 -5.623540 7.098679 0.339617 -0.590475 0.169062 9.389793 -56.496192 -7.451238 50.970158 85.011389 57.002449 -2.410344 -13.430641 0.109332 0.044938 0.400887 0.035615
-18.802749 51.669515 29.303632 177.993141 -24.188294 0.359469 -0.619035 12.315495 0.466814 -0.062286 0.931029 0.074618 -0.102016 1.585332 0.126702 -0.541223 11.195882 0.856321 3.238234 19.406698 -4.865043 4.667560 -4.980538 -6.051793 14.821909 5.938095 6.355111 73.490305 -5.998077 -71.243423 127.867434 -30.579533 -164.004562 7.758631 0.943730 -21.750213 -2.135184 12.923463 -12.747167 -25.844712 2.145246 31.329262 -172.087674 -60.897199 -155.271253 14.272560 2.752568 -18.802898 -11.138527 -58.474798 4.087853 -66.095415 82.477896 -74.907025 -3.531486 -5.625307 7.095750 0.341905 -0.586142 0.172602 9.492445 -56.490277 -7.534913 50.938537 85.015704 57.032918 -2.412500 -13.431677 0.119071 0.045202 0.399907 0.034444
-18.811248 51.670023 29.301285 178.003083 -24.190649 0.350917 -0.617075 12.305653 0.472939 -0.059986 0.929660 0.074259 -0.087576 1.566729 0.126152 -0.557254 11.215734 0.859727 3.252908 19.399484 -4.876325 4.709251 -4.992152 -6.109979 14.872014 5.882486 6.327956 73.442293 -5.972577 -71.206603 127.943417 -30.528559 -164.035354 7.768584 0.964389 -21.737774 -2.123740 12.800301 -12.700906 -25.648953 2.017619 31.561898 -172.952940 -59.547723 -154.825466 14.465730 2.293848 -18.791609 -11.138419 -58.466066 4.086346 -66.083282 82.476362 -74.897752 -3.537526 -5.632565 7.100456 0.341562 -0.579655 0.178154 9.543917 -56.485838 -7.582211 50.924945 85.019590 57.039880 -2.415599 -13.432367 0.134156 0.043358 0.399918 0.033352
-18.819644 51.670880 29.297515 178.001556 -24.200055 0.346430 -0.606345 12.302776 0.479800 -0.041837 0.889704 0.077418 -0.095460 1.586728 0.124044 -0.547723 11.199909 0.866780 3.267327 19.406516 -4.903501 4.739552 -4.989853 -6.160198 14.902449 5.864786 6.311417 73.396535 -5.950085 -71.181128 128.024840 -30.500033 -164.083588 7.760437 0.972911 -21.725764 -2.144881 12.718995 -12.658530 -25.461507 1.886659 31.782470 -173.756933 -58.222619 -154.447168 14.655851 1.824702 -18.818587 -11.122938 -58.451721 4.083738 -66.058987 82.484963 -74.878189 -3.559285 -5.635029 7.111041 0.351687 -0.575206 0.177700 9.606845 -56.475000 -7.629173 50.969842 85.026575 57.105921 -2.417999 -13.432422 0.151686 0.039796 0.395175 0.031405
-18.827644 51.671044 29.294588 177.999910 -24.202307 0.339159 -0.593459 12.282147 0.492957 -0.045454 0.889461 0.076079 -0.091129 1.580480 0.126538 -0.539799 11.158133 0.880646 3.282751 19.434713 -4.944882 4.781784 -4.989068 -6.227971 14.942126 5.874705 6.294815 73.346189 -5.934853 -71.152252 128.134854 -30.464136 -164.142686 7.749755 0.991293 -21.722716 -2.173704 12.670013 -12.628793 -25.288390 1.753442 31.991378 -174.503202 -56.929892 -154.125832 14.836917 1.345041 -18.876586 -11.122443 -58.446027 4.091884 -66.051925 82.486657 -74.871150 -3.575735 -5.634264 7.111093 0.360484 -0.576123 0.174826 9.669540 -56.470982 -7.675807 50.979484 85.036068 57.137909 -2.412019 -13.436843 0.171321 0.031651 0.396092 0.026492
-18.835695 51.670865 29.291517 177.997857 -24.204096 0.331893 -0.583681 12.263038 0.503054 -0.049678 0.899324 0.076066 -0.086089 1.565055 0.128086 -0.543900 11.139375 0.887449 3.343751 19.406049 -5.029976 4.804981 -4.957185 -6.253577 14.993187 5.857865 6.283332 73.286506 -5.930590 -71.103004 128.272874 -30.406792 -164.204832 7.742391 1.015870 -21.727613 -2.185880 12.657943 -12.614915 -25.140553 1.586748 32.233730 -175.200570 -55.671001 -153.851312 15.008587 0.859147 -18.971738 -11.119922 -58.440483 4.099312 -66.044757 82.489464 -74.863828 -3.591049 -5.639150 7.110085 0.368595 -0.573894 0.178605 9.732934 -56.467023 -7.723685 50.946941 85.049961 57.130957 -2.403090 -13.443245 0.184561 0.022356 0.400712 0.021989
-18.844425 51.670619 29.287665 178.002138 -24.209630 0.325521 -0.585204 12.249258 0.508706 -0.050535 0.908024 0.075846 -0.092015 1.528780 0.126307 -0.544845 11.152144 0.890712 3.395399 19.392037 -5.100414 4.857350 -4.945267 -6.312386 15.048344 5.825701 6.277606 73.250785 -5.911923 -71.085534 128.399308 -30.385601 -164.278040 7.739024 1.038467 -21.734856 -2.190565 12.638143 -12.596091 -24.983418 1.425421 32.463260 -175.855528 -54.436896 -153.632763 15.176056 0.377623 -19.107381 -11.103565 -58.431409 4.091072 -66.059870 82.494278 -74.876522 -3.610755 -5.649582 7.114668 0.374202 -0.567831 0.183754 9.757927 -56.460893 -7.745502 50.951664 85.058227 57.140927 -2.402998 -13.450229 0.195602 0.024073 0.403687 0.026114
-18.851456 51.670150 29.283351 177.999677 -24.217254 0.311023 -0.592582 12.221933 0.512961 -0.050594 0.904045 0.076237 -0.085760 1.544586 0.129804 -0.545519 11.141071 0.893707 3.444269 19.390594 -5.159000 4.926090 -4.940011 -6.390248 15.102364 5.788873 6.277764 73.214846 -5.899844 -71.062931 128.519265 -30.370678 -164.340705 7.736310 1.047211 -21.738573 -2.252704 12.487309 -12.519730 -24.726281 1.345901 32.567783 -176.479009 -53.221942 -153.471477 15.346463 -0.089584 -19.291676 -11.079964 -58.413118 4.100328 -66.070381 82.486258 -74.881769 -3.644050 -5.667204 7.114748 0.386798 -0.551930 0.200335 9.772320 -56.454819 -7.745925 51.052338 85.061582 57.243184 -2.405013 -13.463572 0.214356 0.015993 0.410321 0.023241
